HIERARCHY
ROOT Hips
{
	OFFSET 0.00000 0.00000 0.00000
	CHANNELS 6 Xposition Yposition Zposition Zrotation Yrotation Xrotation 
	JOINT LHipJoint
	{
		OFFSET 0 0 0
		CHANNELS 3 Zrotation Yrotation Xrotation
		JOINT LeftHip
		{
			OFFSET 1.38615 -1.80049 0.80104
			CHANNELS 3 Zrotation Yrotation Xrotation
			JOINT LeftKnee
			{
				OFFSET 2.50172 -6.87341 0.00000
				CHANNELS 3 Zrotation Yrotation Xrotation
				JOINT LeftAnkle
				{
					OFFSET 2.67523 -7.35014 0.00000
					CHANNELS 3 Zrotation Yrotation Xrotation
					JOINT LeftToe
					{
						OFFSET 0.17446 -0.47932 2.13155
						CHANNELS 3 Zrotation Yrotation Xrotation
						End Site
						{
							OFFSET 0.00000 -0.00000 1.10023
						}
					}
				}
			}
		}
	}
	JOINT RHipJoint
	{
		OFFSET 0 0 0
		CHANNELS 3 Zrotation Yrotation Xrotation
		JOINT RightHip
		{
			OFFSET -1.18047 -1.80049 0.80104
			CHANNELS 3 Zrotation Yrotation Xrotation
			JOINT RightKnee
			{
				OFFSET -2.59789 -7.13765 0.00000
				CHANNELS 3 Zrotation Yrotation Xrotation
				JOINT RightAnkle
				{
					OFFSET -2.62125 -7.20183 0.00000
					CHANNELS 3 Zrotation Yrotation Xrotation
					JOINT RightToe
					{
						OFFSET -0.31287 -0.85960 2.07814
						CHANNELS 3 Zrotation Yrotation Xrotation
						End Site
						{
							OFFSET -0.00000 -0.00000 1.11766
						}
					}
				}
			}
		}
	}
	JOINT lowerback
	{
		OFFSET 0 0 0
		CHANNELS 3 Zrotation Yrotation Xrotation
		JOINT Chest
		{
			OFFSET -0.01587 2.16157 -0.12309
			CHANNELS 3 Zrotation Yrotation Xrotation
			JOINT Chest2
			{
				OFFSET 0.04727 2.16674 -0.03569
				CHANNELS 3 Zrotation Yrotation Xrotation
				JOINT lowerneck
				{
					OFFSET 0 0 0
					CHANNELS 3 Zrotation Yrotation Xrotation
					JOINT Neck
					{
						OFFSET -0.08586 1.60335 0.32783
						CHANNELS 3 Zrotation Yrotation Xrotation
						JOINT Head
						{
							OFFSET 0.07583 1.65857 -0.31618
							CHANNELS 3 Zrotation Yrotation Xrotation
							End Site
							{
								OFFSET 0.03386 1.69434 -0.14584
							}
						}
					}
				}
				JOINT LeftCollar
				{
					OFFSET 0 0 0
					CHANNELS 3 Zrotation Yrotation Xrotation
					JOINT LeftShoulder
					{
						OFFSET 3.17393 1.01901 -0.52897
CHANNELS 3 Zrotation Xrotation Yrotation
						JOINT LeftElbow
						{
OFFSET 0 -5.252870 -0.000000
CHANNELS 3 Zrotation Xrotation Yrotation
							JOINT LeftWrist
							{
OFFSET 0 -3.510140 0.000000
CHANNELS 3 Zrotation Xrotation Yrotation
								JOINT lhand
								{
									OFFSET 0 0 0
CHANNELS 3 Zrotation Xrotation Yrotation
									JOINT LFingers
									{
OFFSET 0 -0.706180 -0.000000
CHANNELS 3 Zrotation Xrotation Yrotation
										End Site
										{
OFFSET 0 -0.569340 -0.000000
										}
									}
								}
								JOINT LThumb
								{
OFFSET 0 0.000000 0.000000
CHANNELS 3 Zrotation Xrotation Yrotation
									End Site
									{
OFFSET 0 -0.578030 0.578030
									}
								}
							}
						}
					}
				}
				JOINT RightCollar
				{
					OFFSET 0 0 0
					CHANNELS 3 Zrotation Yrotation Xrotation
					JOINT RightShoulder
					{
						OFFSET -2.99471 1.26495 -0.61125
CHANNELS 3 Zrotation Xrotation Yrotation
						JOINT RightElbow
						{
OFFSET 0 -5.287210 -0.000000
CHANNELS 3 Zrotation Xrotation Yrotation
							JOINT RightWrist
							{
OFFSET 0 -3.505440 0.000000
CHANNELS 3 Zrotation Xrotation Yrotation
								JOINT rhand
								{
									OFFSET 0 0 0
CHANNELS 3 Zrotation Xrotation Yrotation
									JOINT RFingers
									{
OFFSET 0 -0.885000 -0.000000
CHANNELS 3 Zrotation Xrotation Yrotation
										End Site
										{
OFFSET 0 -0.713510 -0.000000
										}
									}
								}
								JOINT RThumb
								{
OFFSET 0 0.000000 0.000000
CHANNELS 3 Zrotation Xrotation Yrotation
									End Site
									{
OFFSET 0 -0.724400 0.724400
									}
								}
							}
						}
					}
				}
			}
		}
	}
}
MOTION
Frames: 6
Frame Time: 0.008333333333333333
13.757900 17.886300 -1.661300 3.742000 -46.854700 2.622000 0.000000 0.000000 0.000000 -19.354900 3.594000 -10.301000 1.364000 7.392100 20.882300 0.645000 2.150600 -16.100200 2.749400 -10.277800 -29.881200 0.000000 0.000000 0.000000 13.321800 3.087400 -18.202800 -4.124100 -12.323700 36.886900 -1.691500 -5.262000 -26.935600 -0.555600 4.774700 -13.267000 -5.176900 0.426500 -1.024300 1.719200 0.617100 -0.199900 4.690000 0.304700 0.295100 -10.173700 -4.980800 -20.692000 6.379400 -5.820700 27.945100 3.188400 -2.851400 13.377900 -0.000000 0.000000 0.000000 3.252600 -0.344400 -15.917800 18.101600 -28.287100 4.597300 6.609800 9.269800 -36.547800 0.000000 0.000000 0.000000 -7.125000 0.000000 0.000000 -33.784600 63.556400 16.115300 -0.000000 0.000000 0.000000 -3.756600 -2.611500 2.018900 -17.015300 -26.877900 -4.094200 -14.549800 -6.498300 -8.587000 0.000000 0.000000 0.000000 7.125000 0.000000 -0.000000 8.889400 21.156300 5.143000
13.741132 17.918033 -1.667340 3.326588 -46.726777 2.899933 0.000000 0.000000 0.000000 -18.771988 2.546184 -10.470482 1.438464 7.582497 21.453131 0.696836 1.044727 -16.185662 1.525610 -7.741242 -21.962853 0.000000 0.000000 0.000000 13.748121 3.072615 -17.771792 -3.993202 -12.151062 36.268920 -1.694205 -5.296167 -26.973193 -0.429570 4.201795 -11.645738 -4.812783 0.484827 -1.037642 1.831888 0.691925 -0.104611 4.602194 0.337425 0.394806 -10.373383 -4.979538 -20.632230 6.561233 -5.805284 27.855310 3.296761 -2.840943 13.340578 0.000000 0.000000 0.000000 3.229431 -0.439599 -15.485800 18.064999 -28.240312 4.579991 5.422161 9.095179 -36.587646 0.000000 0.000000 0.000000 -7.125000 0.000000 0.000000 -35.036967 63.273779 16.555954 0.000000 0.000000 0.000000 -3.997391 -2.572555 2.080292 -17.104008 -26.994645 -4.134407 -14.392037 -6.711055 -8.929932 0.000000 0.000000 0.000000 7.125000 0.000000 0.000000 8.991270 20.814450 5.273808
13.721313 17.925997 -1.674103 3.355317 -46.682607 2.776043 0.000000 0.000000 0.000000 -18.648235 2.235767 -10.391756 1.459127 7.634697 21.609853 0.710289 0.540385 -16.129635 0.955467 -6.187724 -17.342206 0.000000 0.000000 0.000000 13.822805 3.123757 -17.452562 -3.949028 -12.092210 36.058867 -1.667439 -5.486759 -26.890656 -0.414274 4.131491 -11.446839 -4.766094 0.498829 -0.998789 1.794895 0.709656 -0.019681 4.537594 0.342767 0.459421 -10.192040 -4.895727 -20.647140 6.450853 -5.707480 27.827673 3.239220 -2.792423 13.310563 0.000000 0.000000 0.000000 3.176792 -0.390899 -14.482703 18.074651 -28.252706 4.584524 5.625246 10.062351 -36.733249 0.000000 0.000000 0.000000 -7.125000 0.000000 0.000000 -35.010629 63.444535 16.681349 0.000000 0.000000 0.000000 -4.385855 -2.247981 2.653359 -17.109765 -27.002261 -4.137033 -13.667353 -5.884480 -9.586196 0.000000 0.000000 0.000000 7.125000 0.000000 0.000000 9.486291 20.183760 5.710240
13.708869 17.921182 -1.676516 3.727374 -46.694292 2.450479 0.000000 0.000000 0.000000 -18.886418 2.118024 -10.366702 1.483969 7.696436 21.795812 0.715723 0.538450 -16.189123 0.785206 -5.655075 -15.787336 0.000000 0.000000 0.000000 13.588406 3.043846 -17.333173 -3.913449 -12.044286 35.888846 -1.599860 -5.766849 -26.568364 -0.524155 4.627969 -12.852347 -4.854436 0.525499 -0.965017 1.669586 0.746239 0.024174 4.457735 0.359545 0.482111 -10.201660 -4.852797 -20.611820 6.508936 -5.659665 27.769687 3.272009 -2.764455 13.276090 0.000000 0.000000 0.000000 3.133361 -0.269385 -13.733346 18.052779 -28.224663 4.574194 7.023061 11.251792 -36.492719 0.000000 0.000000 0.000000 -7.125000 0.000000 0.000000 -33.293168 63.620811 15.904911 0.000000 0.000000 0.000000 -4.601300 -1.926697 4.183561 -17.394126 -27.373755 -4.267286 -14.748669 -7.790297 -8.668839 0.000000 0.000000 0.000000 7.125000 0.000000 0.000000 8.741274 21.066499 5.082451
13.702773 17.914155 -1.678839 3.992821 -46.620004 2.228051 0.000000 0.000000 0.000000 -19.069524 1.949296 -10.327900 1.498857 7.733281 21.906884 0.720594 0.682728 -16.300309 0.871600 -5.943756 -16.623811 0.000000 0.000000 0.000000 13.419812 3.049321 -17.257892 -3.895722 -12.020361 35.804021 -1.551514 -6.086051 -26.408345 -0.628638 5.069708 -14.108166 -4.905047 0.552808 -0.898520 1.631433 0.781023 0.067322 4.446565 0.375854 0.485130 -10.409312 -4.841037 -20.534017 6.739714 -5.647076 27.703991 3.401133 -2.750813 13.246847 0.000000 0.000000 0.000000 3.025944 -0.171777 -13.244817 18.064319 -28.239461 4.579684 7.999792 12.023835 -36.136714 0.000000 0.000000 0.000000 -7.125000 0.000000 0.000000 -31.866448 63.587522 15.127276 0.000000 0.000000 0.000000 -4.757179 -1.875865 4.557360 -17.524526 -27.544038 -4.327069 -15.111923 -8.561231 -8.216946 0.000000 0.000000 0.000000 7.125000 0.000000 0.000000 8.496808 21.508708 4.842179
13.694149 17.909068 -1.685277 3.989170 -46.418915 2.217726 0.000000 0.000000 0.000000 -19.008303 1.702083 -10.267119 1.503717 7.745241 21.942922 0.731631 0.661520 -16.413967 0.922263 -6.117914 -17.127092 0.000000 0.000000 0.000000 13.489632 3.256134 -17.100330 -3.890276 -12.012967 35.777884 -1.529544 -6.486095 -26.491151 -0.668175 5.227344 -14.558170 -4.804285 0.599072 -0.903568 1.653588 0.842920 0.169399 4.414058 0.402097 0.587170 -10.598949 -4.884821 -20.565806 6.934831 -5.700514 27.700108 3.501545 -2.767056 13.271838 0.000000 0.000000 0.000000 2.983784 -0.188048 -13.040956 18.102553 -28.288300 4.597767 8.651104 12.617939 -35.917876 0.000000 0.000000 0.000000 -7.125000 0.000000 0.000000 -30.933804 63.578702 14.632550 0.000000 0.000000 0.000000 -4.904796 -1.935238 4.063102 -17.553425 -27.581521 -4.340450 -14.589029 -8.010564 -8.333965 0.000000 0.000000 0.000000 7.125000 0.000000 0.000000 8.869534 21.412623 5.080031
